<svg xmlns="http://www.w3.org/2000/svg" viewBox="0 0 32 32"><linearGradient id="a" x1="2" x2="30" y1="16" y2="16" gradientUnits="userSpaceOnUse"><stop offset="0" stop-color="#000092"/><stop offset="1" stop-color="#FF00F3"/></linearGradient><path fill="url(#a)" d="M28.5 11c-.827 0-1.5.673-1.5 1.5 0 .23.057.447.15.643l-1.324 1.324-1.95-4.255A1.496 1.496 0 0 0 23 7.5c-.827 0-1.5.673-1.5 1.5 0 .45.204.851.52 1.126l-1.869 2.989-2.98-5.502c.5-.364.829-.95.829-1.613 0-1.103-.897-2-2-2s-2 .897-2 2c0 .664.329 1.25.828 1.613l-2.98 5.502-1.868-2.989A1.49 1.49 0 0 0 10.5 9c0-.827-.673-1.5-1.5-1.5S7.5 8.173 7.5 9c0 .5.248.94.624 1.212l-1.95 4.255-1.324-1.324c.093-.196.15-.412.15-.643 0-.827-.673-1.5-1.5-1.5S2 11.673 2 12.5c0 .778.597 1.412 1.356 1.485L5.979 24.48l-.954 2.862a.497.497 0 0 0 .07.45c.093.13.244.208.405.208h21a.498.498 0 0 0 .405-.208.497.497 0 0 0 .07-.45l-.954-2.862 2.623-10.495A1.497 1.497 0 0 0 30 12.5c0-.827-.673-1.5-1.5-1.5zM23 8.5a.497.497 0 1 1 .166.966c-.02.002-.038-.002-.058.003A3.51 3.51 0 0 0 23 9.5a.88.88 0 0 1-.137-.035c-.01-.003-.02.003-.03.001A.497.497 0 0 1 23 8.5zm-.067 2.052 2.14 4.669-2.453 2.452-1.922-3.548 2.235-3.573zM16 5a1 1 0 1 1-.001 2.001A1 1 0 0 1 16 5zM9 8.5a.494.494 0 1 1 .132.973c-.007.002-.015-.002-.022 0l-.048.014C9.04 9.49 9.022 9.5 9 9.5c-.038 0-.072-.014-.108-.022v-.01c-.02-.004-.039 0-.058-.002A.497.497 0 0 1 9 8.5zm.067 2.052 2.235 3.573-1.922 3.548-2.452-2.452 2.14-4.67zm-5.216 2.303a.521.521 0 0 1-.235.113c-.012.003-.02.011-.031.015-.029.005-.055.017-.085.017a.501.501 0 0 1 0-1 .501.501 0 0 1 .351.855zM6.193 27l.667-2h18.28l.667 2H6.193zm18.916-3H6.891l-2.468-9.87 4.723 4.724a.495.495 0 0 0 .182.112c.02.007.04.007.06.012.037.009.073.022.112.022a.501.501 0 0 0 .44-.262l2.38-4.392v-.002l3.445-6.36c.027.004.054-.002.08 0 .052.004.102.016.155.016s.103-.012.154-.016c.027-.002.054.004.081 0l3.445 6.36v.002l2.38 4.392a.501.501 0 0 0 .44.262c.038 0 .073-.013.11-.022.02-.004.042-.005.062-.012a.495.495 0 0 0 .182-.112l4.723-4.724L25.11 24zM28.5 13c-.03 0-.056-.012-.085-.017-.011-.004-.02-.012-.031-.015a.521.521 0 0 1-.235-.113A.498.498 0 0 1 28.5 12a.501.501 0 0 1 0 1zM16 17c-1.379 0-2.5 1.121-2.5 2.5S14.621 22 16 22s2.5-1.121 2.5-2.5S17.379 17 16 17zm0 4c-.827 0-1.5-.673-1.5-1.5S15.173 18 16 18s1.5.673 1.5 1.5S16.827 21 16 21z"/></svg>